<?xml version="1.0" encoding="UTF-8"?>
<svg width="16px" height="16px" viewBox="0 0 16 16" version="1.1" xmlns="http://www.w3.org/2000/svg" xmlns:xlink="http://www.w3.org/1999/xlink">
    <!-- Generator: sketchtool 48.2 (47327) - http://www.bohemiancoding.com/sketch -->
    <title>BB4B2322-8AE3-4B30-B493-28DCE1FF73DA@3x</title>
    <desc>Created with sketchtool.</desc>
    <defs></defs>
    <g id="Ícones/Compartilhamento-01" stroke="none" stroke-width="1" fill="none" fill-rule="evenodd" transform="translate(-65.000000, -10.000000)">
        <g id="Ícones/Footer/Redes-Sociais/Instagram" transform="translate(65.000000, 10.000000)" fill="#FFFFFF">
            <path d="M8,0 C5.82728675,0 5.55490626,0.00925240187 4.70156643,0.0482098834 C3.85001217,0.0870050422 3.26856586,0.222219968 2.7596786,0.42009151 C2.23358494,0.624618288 1.78751725,0.89796995 1.34274815,1.34273453 C0.89797906,1.78749911 0.624299976,2.2337246 0.419933447,2.75981292 C0.222222222,3.26869503 0.0868436004,3.85013544 0.048048048,4.70168106 C0.00909017125,5.55501222 0,5.82722763 0,8.00008116 C0,10.1727724 0.00909017125,10.4451501 0.048048048,11.2983189 C0.0868436004,12.1500269 0.222222222,12.7314673 0.419933447,13.2401871 C0.624299976,13.7664377 0.89797906,14.2126632 1.34274815,14.6572655 C1.78751725,15.1020301 2.23358494,15.375544 2.7596786,15.5799085 C3.26856586,15.77778 3.85001217,15.912995 4.70156643,15.9517901 C5.55490626,15.9909099 5.82728675,16 8,16 C10.1727133,16 10.4450937,15.9909099 11.2984336,15.9517901 C12.1498255,15.912995 12.7314341,15.77778 13.2403214,15.5799085 C13.7664151,15.375544 14.2124828,15.1020301 14.6572518,14.6572655 C15.1020209,14.2126632 15.3757,13.7664377 15.5800666,13.2401871 C15.7777778,12.7314673 15.9131564,12.1500269 15.951952,11.2983189 C15.9909098,10.4451501 16,10.1727724 16,8.00008116 C16,5.82722763 15.9909098,5.55501222 15.951952,4.70168106 C15.9131564,3.85013544 15.7777778,3.26869503 15.5800666,2.75981292 C15.3757,2.2337246 15.1020209,1.78749911 14.6572518,1.34273453 C14.2124828,0.89796995 13.7664151,0.624618288 13.2403214,0.42009151 C12.7314341,0.222219968 12.1498255,0.0870050422 11.2984336,0.0482098834 C10.4450937,0.00925240187 10.1727133,0 8,0 M8,1.44158914 C10.1361902,1.44158914 10.3890918,1.44970528 11.2326922,1.4881758 C12.0126613,1.5237245 12.4363282,1.65390742 12.7181235,1.76347533 C13.0916322,1.90875427 13.358169,2.08211507 13.6380164,2.36212197 C13.9180261,2.64196654 14.0913887,2.90850064 14.2365068,3.28184318 C14.3460758,3.56379795 14.47626,3.98729824 14.5119714,4.76725948 C14.5504423,5.61085128 14.5585586,5.86391259 14.5585586,8.00008116 C14.5585586,10.1360874 14.5504423,10.3891487 14.5119714,11.2327405 C14.47626,12.0127018 14.3460758,12.4362021 14.2365068,12.7183191 C14.0913887,13.0914994 13.9180261,13.3580335 13.6380164,13.6380404 C13.358169,13.9178849 13.0916322,14.091408 12.7181235,14.2365247 C12.4363282,14.3460926 12.0126613,14.4764378 11.2326922,14.5118242 C10.3892541,14.550457 10.1361902,14.5584109 8,14.5584109 C5.86380976,14.5584109 5.61074588,14.550457 4.76730785,14.5118242 C3.98733869,14.4764378 3.56367178,14.3460926 3.28187647,14.2365247 C2.90836783,14.091408 2.64183102,13.9178849 2.36198361,13.6380404 C2.08197387,13.3580335 1.90861131,13.0914994 1.76349322,12.7183191 C1.65392419,12.4362021 1.52373996,12.0127018 1.48802857,11.2327405 C1.44955767,10.3891487 1.44144144,10.1360874 1.44144144,8.00008116 C1.44144144,5.86391259 1.44955767,5.61085128 1.48802857,4.76742181 C1.52373996,3.98729824 1.65392419,3.56379795 1.76349322,3.28184318 C1.90861131,2.90850064 2.08197387,2.64196654 2.36198361,2.36212197 C2.64183102,2.08211507 2.90836783,1.90875427 3.28187647,1.76347533 C3.56367178,1.65390742 3.98733869,1.5237245 4.76730785,1.4881758 C5.61090821,1.44970528 5.86380976,1.44158914 8,1.44158914" id="Fill-1"></path>
            <path d="M8,10.5964912 C6.56598704,10.5964912 5.40350877,9.43401296 5.40350877,8 C5.40350877,6.56598704 6.56598704,5.40350877 8,5.40350877 C9.43401296,5.40350877 10.5964912,6.56598704 10.5964912,8 C10.5964912,9.43401296 9.43401296,10.5964912 8,10.5964912 M8,4 C5.79073811,4 4,5.79089616 4,8 C4,10.2091038 5.79073811,12 8,12 C10.2091038,12 12,10.2091038 12,8 C12,5.79089616 10.2091038,4 8,4" id="Fill-3"></path>
            <path d="M13,4 C13,4.55241799 12.5522489,5 12,5 C11.4477511,5 11,4.55241799 11,4 C11,3.44758201 11.4477511,3 12,3 C12.5522489,3 13,3.44758201 13,4" id="Fill-5"></path>
        </g>
    </g>
</svg>