<?xml version="1.0" encoding="UTF-8"?>
<svg width="17px" height="14px" viewBox="0 0 17 14" version="1.1" xmlns="http://www.w3.org/2000/svg" xmlns:xlink="http://www.w3.org/1999/xlink">
    <!-- Generator: sketchtool 48.2 (47327) - http://www.bohemiancoding.com/sketch -->
    <title>38F4481D-4D36-4A47-A5A1-2DA1060FF490@3x</title>
    <desc>Created with sketchtool.</desc>
    <defs></defs>
    <g id="Ícones/Compartilhamento-01" stroke="none" stroke-width="1" fill="none" fill-rule="evenodd" transform="translate(-33.000000, -11.000000)">
        <g id="Ícones/Footer/Redes-Sociais/Twitter" transform="translate(33.000000, 11.000000)" fill="#FFFFFF">
            <path d="M5.20896774,13.5 C11.4784839,13.5 14.9063226,8.30496774 14.9063226,3.80264516 C14.9063226,3.65429032 14.9063226,3.50564516 14.8993548,3.36454839 C15.5639032,2.88377419 16.1433871,2.28280645 16.6026774,1.59735484 C15.9947419,1.86590323 15.3374516,2.04996774 14.6447419,2.13474194 C15.3516774,1.71058065 15.8887742,1.04632258 16.1433871,0.247645161 C15.4858065,0.636096774 14.7579677,0.918870968 13.9804839,1.07419355 C13.3583226,0.409935484 12.474871,0 11.4924194,0 C9.61229032,0 8.08577419,1.52680645 8.08577419,3.40664516 C8.08577419,3.67548387 8.11393548,3.93706452 8.17751613,4.18412903 C5.34309677,4.04303226 2.83412903,2.68577419 1.152,0.62216129 C0.861967742,1.12383871 0.692419355,1.71058065 0.692419355,2.33245161 C0.692419355,3.51290323 1.2933871,4.55893548 2.21225806,5.16687097 C1.65367742,5.15264516 1.13080645,4.99703226 0.671225806,4.74270968 L0.671225806,4.78509677 C0.671225806,6.43906452 1.84470968,7.80996774 3.40664516,8.12816129 C3.12387097,8.20625806 2.81990323,8.24835484 2.50896774,8.24835484 C2.28977419,8.24835484 2.07783871,8.22716129 1.86590323,8.18477419 C2.29703226,9.54174194 3.555,10.5244839 5.0463871,10.5526452 C3.88016129,11.4642581 2.40996774,12.0086129 0.812612903,12.0086129 C0.537096774,12.0086129 0.268258065,11.9943871 0,11.9589677 C1.49109677,12.9347419 3.28645161,13.5 5.20896774,13.5" id="Page-1"></path>
        </g>
    </g>
</svg>